<svg xmlns="http://www.w3.org/2000/svg" xmlns:xlink="http://www.w3.org/1999/xlink" viewBox="0,0,256,256" width="30px" height="30px"><g fill="#696969" fill-rule="nonzero" stroke="none" stroke-width="1" stroke-linecap="butt" stroke-linejoin="miter" stroke-miterlimit="10" stroke-dasharray="" stroke-dashoffset="0" font-family="none" font-weight="none" font-size="none" text-anchor="none" style="mix-blend-mode: normal"><g transform="scale(8.53333,8.53333)"><path d="M25.428,3.333c-0.19,-0.212 -0.461,-0.333 -0.745,-0.333h-19.366c-0.284,0 -0.555,0.121 -0.745,0.333c-0.19,0.212 -0.28,0.495 -0.249,0.777l2.202,19.823c0.044,0.403 0.329,0.74 0.719,0.851l7.48,2.137c0.09,0.026 0.183,0.039 0.275,0.039c0.092,0 0.185,-0.013 0.275,-0.039l7.48,-2.137c0.39,-0.111 0.674,-0.448 0.719,-0.851l2.203,-19.823c0.032,-0.282 -0.058,-0.565 -0.248,-0.777zM20.516,13.074l-0.446,7.285l-5.038,1.647l-5.038,-1.647l-0.191,-3.484h2.55l0.064,1.584l2.615,0.887l2.615,-0.887l0.191,-2.85h-5.612l-0.127,-2.534h5.867l0.191,-2.534h-8.801l-0.191,-2.535h11.67z"></path></g></g></svg>