<svg xmlns="http://www.w3.org/2000/svg" xmlns:xlink="http://www.w3.org/1999/xlink" viewBox="0,0,256,256" width="30px" height="30px"><g fill="#696969" fill-rule="nonzero" stroke="none" stroke-width="1" stroke-linecap="butt" stroke-linejoin="miter" stroke-miterlimit="10" stroke-dasharray="" stroke-dashoffset="0" font-family="none" font-weight="none" font-size="none" text-anchor="none" style="mix-blend-mode: normal"><g transform="scale(8.53333,8.53333)"><path d="M17.66211,-0.01562c1.528,3.079 -5.47109,4.97897 -6.12109,7.54297c-0.595,2.356 4.15516,5.09375 4.16016,5.09375c-0.722,-0.974 -1.24375,-1.77887 -1.96875,-3.29688c-1.226,-2.567 7.23369,-5.21584 3.92969,-9.33984zM22.72266,4.19727c0,0 -5.33637,0.32222 -5.60937,3.57422c-0.121,1.448 1.40231,2.22139 1.44531,3.27539c0.037,0.861 -0.91016,1.57617 -0.91016,1.57617c0,0 1.56261,-0.23973 2.09961,-1.55274c0.594,-1.456 -1.00027,-2.51855 -0.82227,-3.68555c0.17,-1.116 3.79688,-3.1875 3.79688,-3.1875zM12.76172,12.62305c0,0 -5.48438,-0.07287 -5.48438,1.45313c-0.001,1.595 7.18059,1.70656 12.30859,0.72656c0,0 1.16334,-0.63747 1.52734,-0.98047c-3.36,0.673 -10.82617,0.47853 -10.82617,-0.10547c0,-0.538 2.47461,-1.09375 2.47461,-1.09375zM23.68164,12.66406c-0.60249,-0.02526 -1.26195,0.16652 -1.83008,0.57227c1.187,-0.257 2.1875,0.47341 2.1875,1.31641c0,1.894 -2.7207,3.6875 -2.7207,3.6875c0,0 4.21289,-0.48461 4.21289,-3.59961c0,-1.28625 -0.84546,-1.93445 -1.84961,-1.97656zM10.81641,15.43164c-0.858,-0.001 -2.13477,0.67998 -2.13477,1.33398c0,1.316 6.45442,2.3302 11.23242,0.4082l-1.6543,-1.04102c-3.239,1.063 -9.21136,0.72183 -7.44336,-0.70117zM12.0293,18.23828c-1.179,0 -1.94336,0.79305 -1.94336,1.37305c0,1.796 7.03812,1.85725 9.82812,0.03125l-1.77344,-1.10547c-2.082,0.955 -7.31633,1.08517 -6.11133,-0.29883zM6.91992,20.99023c-1.68064,-0.05268 -2.45117,0.80606 -2.45117,1.50781c0,3.73 18.25391,3.55128 18.25391,-0.26172c0,-0.633 -0.70494,-0.93413 -0.96094,-1.07812c1.49,3.645 -15.11133,3.39514 -15.11133,1.24414c0,-0.49 0.87905,-0.98972 1.99805,-0.76172c0,0 -0.41017,-0.47631 -0.95117,-0.57031c-0.27762,-0.04788 -0.53725,-0.07255 -0.77734,-0.08008zM25.53125,23.79492c-2.897,2.836 -10.87191,4.55764 -18.25391,2.80664c7.417,3.006 18.21891,0.67436 18.25391,-2.80664z"></path></g></g></svg>