<svg xmlns="http://www.w3.org/2000/svg" xmlns:xlink="http://www.w3.org/1999/xlink" viewBox="0,0,256,256" width="30px" height="30px"><g fill="#696969" fill-rule="nonzero" stroke="none" stroke-width="1" stroke-linecap="butt" stroke-linejoin="miter" stroke-miterlimit="10" stroke-dasharray="" stroke-dashoffset="0" font-family="none" font-weight="none" font-size="none" text-anchor="none" style="mix-blend-mode: normal"><g transform="scale(8.53333,8.53333)"><path d="M13,3c-2.209,0 -4,1.791 -4,4v1h5c0.552,0 1,0.448 1,1c0,0.552 -0.448,1 -1,1h-5h-1h-1c-2.209,0 -4,1.791 -4,4v4c0,2.209 1.791,4 4,4h1v-5c0,-1.654 1.346,-3 3,-3h8c0.552,0 1,-0.448 1,-1v-6c0,-2.209 -1.791,-4 -4,-4zM12,5c0.552,0 1,0.448 1,1c0,0.552 -0.448,1 -1,1c-0.552,0 -1,-0.448 -1,-1c0,-0.552 0.448,-1 1,-1zM22,8v5c0,1.654 -1.346,3 -3,3h-8c-0.552,0 -1,0.448 -1,1v6c0,2.209 1.791,4 4,4h3c2.209,0 4,-1.791 4,-4v-1h-5c-0.552,0 -1,-0.448 -1,-1c0,-0.552 0.448,-1 1,-1h5h1h1c2.209,0 4,-1.791 4,-4v-4c0,-2.209 -1.791,-4 -4,-4zM18,23c0.552,0 1,0.448 1,1c0,0.552 -0.448,1 -1,1c-0.552,0 -1,-0.448 -1,-1c0,-0.552 0.448,-1 1,-1z"></path></g></g></svg>